<?xml version="1.0" encoding="UTF-8"?>
<svg width="800" height="400" version="1.1" viewBox="0 0 800 400" xmlns="http://www.w3.org/2000/svg">
    <rect width="800" height="400" fill="#f5f5f5"/>
    <g fill="#9e9e9e">
        <path d="M400 160c-13.807 0-25 11.193-25 25s11.193 25 25 25 25-11.193 25-25-11.193-25-25-25zm0 45c-11.046 0-20-8.954-20-20s8.954-20 20-20 20 8.954 20 20-8.954 20-20 20z"/>
        <path d="M425 185h-50c-19.33 0-35 15.67-35 35v10c0 2.761 2.239 5 5 5h110c2.761 0 5-2.239 5-5v-10c0-19.33-15.67-35-35-35zm30 45h-100v-5c0-16.569 13.431-30 30-30h40c16.569 0 30 13.431 30 30v5z"/>
        <text x="400" y="280" text-anchor="middle" font-family="Arial" font-size="24">Course Image</text>
        <text x="400" y="310" text-anchor="middle" font-family="Arial" font-size="16">Placeholder</text>
    </g>
</svg>
